<mxfile host="app.diagrams.net" modified="2020-11-04T05:57:47.275Z" agent="5.0 (Windows NT 6.2; Win64; x64) AppleWebKit/537.36 (KHTML, like Gecko) Chrome/86.0.4240.111 Safari/537.36" etag="WNWrS3yfKNYLN6F_FG5Q" version="13.8.9-1" type="github">
  <diagram id="J-V4_s7gqBkrRkCgCpwU" name="Page-1">
    <mxGraphModel dx="1471" dy="1939" grid="1" gridSize="10" guides="1" tooltips="1" connect="1" arrows="1" fold="1" page="1" pageScale="1" pageWidth="827" pageHeight="1169" math="0" shadow="0">
      <root>
        <mxCell id="0" />
        <mxCell id="1" parent="0" />
        <mxCell id="N8t71QXlJl4tXd5FIuUb-1" value="" style="shape=actor;whiteSpace=wrap;html=1;" vertex="1" parent="1">
          <mxGeometry x="925" y="-90" width="40" height="60" as="geometry" />
        </mxCell>
        <mxCell id="N8t71QXlJl4tXd5FIuUb-4" value="" style="rhombus;whiteSpace=wrap;html=1;" vertex="1" parent="1">
          <mxGeometry x="890" y="27.5" width="110" height="110" as="geometry" />
        </mxCell>
        <mxCell id="N8t71QXlJl4tXd5FIuUb-5" value="is same&lt;br&gt;store?&lt;br&gt;" style="text;html=1;align=center;verticalAlign=middle;resizable=0;points=[];autosize=1;" vertex="1" parent="1">
          <mxGeometry x="910" y="67.5" width="60" height="30" as="geometry" />
        </mxCell>
        <mxCell id="N8t71QXlJl4tXd5FIuUb-10" value="NO" style="text;html=1;align=center;verticalAlign=middle;resizable=0;points=[];autosize=1;" vertex="1" parent="1">
          <mxGeometry x="1005" y="100" width="30" height="20" as="geometry" />
        </mxCell>
        <mxCell id="N8t71QXlJl4tXd5FIuUb-11" value="YES" style="text;html=1;align=center;verticalAlign=middle;resizable=0;points=[];autosize=1;" vertex="1" parent="1">
          <mxGeometry x="850" y="90" width="40" height="20" as="geometry" />
        </mxCell>
        <mxCell id="N8t71QXlJl4tXd5FIuUb-12" value="POSS DB" style="shape=cylinder3;whiteSpace=wrap;html=1;boundedLbl=1;backgroundOutline=1;size=15;" vertex="1" parent="1">
          <mxGeometry x="1600" y="300" width="70" height="80" as="geometry" />
        </mxCell>
        <mxCell id="N8t71QXlJl4tXd5FIuUb-14" value="get get EPOSS data&lt;br&gt;" style="rounded=0;whiteSpace=wrap;html=1;" vertex="1" parent="1">
          <mxGeometry x="760" y="300" width="160" height="80" as="geometry" />
        </mxCell>
        <mxCell id="N8t71QXlJl4tXd5FIuUb-16" value="FILTER: locationCode, cmDocNo, cmFiscalYear, cmStatus, &lt;br&gt;cmSubTxnType != GIFT_SALE, other table status = CONFIRMED" style="text;html=1;align=center;verticalAlign=middle;resizable=0;points=[];autosize=1;" vertex="1" parent="1">
          <mxGeometry x="310" y="380" width="370" height="30" as="geometry" />
        </mxCell>
        <mxCell id="N8t71QXlJl4tXd5FIuUb-17" value="get GRN elligible item by cmId" style="rounded=0;whiteSpace=wrap;html=1;" vertex="1" parent="1">
          <mxGeometry x="760" y="545" width="160" height="60" as="geometry" />
        </mxCell>
        <mxCell id="N8t71QXlJl4tXd5FIuUb-19" value="cashMemoDetails items by CMId - grnItems By CMId" style="text;html=1;align=center;verticalAlign=middle;resizable=0;points=[];autosize=1;" vertex="1" parent="1">
          <mxGeometry x="350" y="445" width="300" height="20" as="geometry" />
        </mxCell>
        <mxCell id="N8t71QXlJl4tXd5FIuUb-20" value="POSS DB" style="shape=cylinder3;whiteSpace=wrap;html=1;boundedLbl=1;backgroundOutline=1;size=15;" vertex="1" parent="1">
          <mxGeometry x="225" y="640" width="70" height="80" as="geometry" />
        </mxCell>
        <mxCell id="N8t71QXlJl4tXd5FIuUb-22" value="save EPOSS data&lt;br&gt;" style="rounded=0;whiteSpace=wrap;html=1;" vertex="1" parent="1">
          <mxGeometry x="760" y="650" width="160" height="60" as="geometry" />
        </mxCell>
        <mxCell id="N8t71QXlJl4tXd5FIuUb-25" value="" style="endArrow=classic;html=1;exitX=0;exitY=0.5;exitDx=0;exitDy=0;entryX=1;entryY=0.5;entryDx=0;entryDy=0;entryPerimeter=0;" edge="1" parent="1" source="N8t71QXlJl4tXd5FIuUb-22" target="N8t71QXlJl4tXd5FIuUb-20">
          <mxGeometry width="50" height="50" relative="1" as="geometry">
            <mxPoint x="390" y="550" as="sourcePoint" />
            <mxPoint x="440" y="500" as="targetPoint" />
          </mxGeometry>
        </mxCell>
        <mxCell id="N8t71QXlJl4tXd5FIuUb-26" value="&lt;span&gt;CM, SalesTxn, CMDetails, CustTxn, PaymentDetails, FOCScheme, FOCDetails&lt;/span&gt;" style="text;html=1;align=center;verticalAlign=middle;resizable=0;points=[];autosize=1;" vertex="1" parent="1">
          <mxGeometry x="300" y="565" width="440" height="20" as="geometry" />
        </mxCell>
        <mxCell id="N8t71QXlJl4tXd5FIuUb-27" value="&lt;span&gt;CM, SalesTxn, CMDetails, CustTxn, PaymentDetails, FOCScheme, FOCDetails&lt;/span&gt;" style="text;html=1;align=center;verticalAlign=middle;resizable=0;points=[];autosize=1;" vertex="1" parent="1">
          <mxGeometry x="310" y="280" width="440" height="20" as="geometry" />
        </mxCell>
        <mxCell id="N8t71QXlJl4tXd5FIuUb-29" value="send required fields in response (filter by GRN elligible items)" style="rounded=0;whiteSpace=wrap;html=1;" vertex="1" parent="1">
          <mxGeometry x="760" y="860" width="160" height="60" as="geometry" />
        </mxCell>
        <mxCell id="N8t71QXlJl4tXd5FIuUb-30" value="" style="endArrow=classic;html=1;exitX=0.5;exitY=1;exitDx=0;exitDy=0;entryX=0;entryY=0;entryDx=0;entryDy=0;" edge="1" parent="1" target="N8t71QXlJl4tXd5FIuUb-77">
          <mxGeometry width="50" height="50" relative="1" as="geometry">
            <mxPoint x="839.41" y="380" as="sourcePoint" />
            <mxPoint x="910" y="440" as="targetPoint" />
            <Array as="points">
              <mxPoint x="839" y="410" />
              <mxPoint x="910" y="410" />
            </Array>
          </mxGeometry>
        </mxCell>
        <mxCell id="N8t71QXlJl4tXd5FIuUb-33" value="" style="endArrow=classic;html=1;exitX=0.5;exitY=1;exitDx=0;exitDy=0;" edge="1" parent="1" source="N8t71QXlJl4tXd5FIuUb-17" target="N8t71QXlJl4tXd5FIuUb-22">
          <mxGeometry width="50" height="50" relative="1" as="geometry">
            <mxPoint x="269" y="380" as="sourcePoint" />
            <mxPoint x="269" y="435" as="targetPoint" />
          </mxGeometry>
        </mxCell>
        <mxCell id="N8t71QXlJl4tXd5FIuUb-36" value="" style="endArrow=classic;html=1;exitX=0.5;exitY=1;exitDx=0;exitDy=0;" edge="1" parent="1" source="N8t71QXlJl4tXd5FIuUb-1" target="N8t71QXlJl4tXd5FIuUb-4">
          <mxGeometry width="50" height="50" relative="1" as="geometry">
            <mxPoint x="970" y="155" as="sourcePoint" />
            <mxPoint x="920" y="100" as="targetPoint" />
          </mxGeometry>
        </mxCell>
        <mxCell id="N8t71QXlJl4tXd5FIuUb-37" value="&lt;font style=&quot;font-size: 24px&quot;&gt;INITATE GRN&lt;/font&gt;" style="text;html=1;align=center;verticalAlign=middle;resizable=0;points=[];autosize=1;" vertex="1" parent="1">
          <mxGeometry x="980" y="-10" width="160" height="20" as="geometry" />
        </mxCell>
        <mxCell id="N8t71QXlJl4tXd5FIuUb-8" value="call EPOSS&lt;br&gt;/grn" style="text;html=1;align=center;verticalAlign=middle;resizable=0;points=[];autosize=1;" vertex="1" parent="1">
          <mxGeometry x="840" y="260" width="80" height="30" as="geometry" />
        </mxCell>
        <mxCell id="N8t71QXlJl4tXd5FIuUb-38" value="" style="endArrow=classic;html=1;exitX=0;exitY=0.5;exitDx=0;exitDy=0;" edge="1" parent="1" source="N8t71QXlJl4tXd5FIuUb-4">
          <mxGeometry width="50" height="50" relative="1" as="geometry">
            <mxPoint x="880" y="145" as="sourcePoint" />
            <mxPoint x="840" y="160" as="targetPoint" />
            <Array as="points">
              <mxPoint x="840" y="83" />
            </Array>
          </mxGeometry>
        </mxCell>
        <mxCell id="N8t71QXlJl4tXd5FIuUb-39" value="" style="endArrow=classic;html=1;exitX=0;exitY=0.5;exitDx=0;exitDy=0;exitPerimeter=0;entryX=1;entryY=0.5;entryDx=0;entryDy=0;" edge="1" parent="1">
          <mxGeometry width="50" height="50" relative="1" as="geometry">
            <mxPoint x="1129.9999999999998" y="338.33000000000004" as="sourcePoint" />
            <mxPoint x="1600" y="338.33000000000004" as="targetPoint" />
          </mxGeometry>
        </mxCell>
        <mxCell id="N8t71QXlJl4tXd5FIuUb-40" value="&lt;span&gt;CM, SalesTxn, CMDetails, CustTxn, PaymentDetails, FOCScheme, FOCDetails&lt;/span&gt;" style="text;html=1;align=center;verticalAlign=middle;resizable=0;points=[];autosize=1;" vertex="1" parent="1">
          <mxGeometry x="1140" y="310" width="440" height="20" as="geometry" />
        </mxCell>
        <mxCell id="N8t71QXlJl4tXd5FIuUb-41" value="FILTER: locationCode, cmDocNo, cmFiscalYear, cmStatus, &lt;br&gt;cmSubTxnType != GIFT_SALE, other table status = CONFIRMED" style="text;html=1;align=center;verticalAlign=middle;resizable=0;points=[];autosize=1;" vertex="1" parent="1">
          <mxGeometry x="1175" y="350" width="370" height="30" as="geometry" />
        </mxCell>
        <mxCell id="N8t71QXlJl4tXd5FIuUb-42" value="get get POSS data" style="rounded=0;whiteSpace=wrap;html=1;" vertex="1" parent="1">
          <mxGeometry x="970" y="300" width="160" height="80" as="geometry" />
        </mxCell>
        <mxCell id="N8t71QXlJl4tXd5FIuUb-43" value="get GRN elligible item by cmId" style="rounded=0;whiteSpace=wrap;html=1;" vertex="1" parent="1">
          <mxGeometry x="970" y="545" width="160" height="60" as="geometry" />
        </mxCell>
        <mxCell id="N8t71QXlJl4tXd5FIuUb-44" value="call EPOSS&lt;br&gt;/grn/items" style="text;html=1;align=center;verticalAlign=middle;resizable=0;points=[];autosize=1;" vertex="1" parent="1">
          <mxGeometry x="1610" y="390" width="80" height="30" as="geometry" />
        </mxCell>
        <mxCell id="N8t71QXlJl4tXd5FIuUb-45" value="" style="endArrow=classic;html=1;exitX=0.5;exitY=1;exitDx=0;exitDy=0;entryX=1;entryY=0;entryDx=0;entryDy=0;" edge="1" parent="1" source="N8t71QXlJl4tXd5FIuUb-42" target="N8t71QXlJl4tXd5FIuUb-77">
          <mxGeometry width="50" height="50" relative="1" as="geometry">
            <mxPoint x="950" y="440" as="sourcePoint" />
            <mxPoint x="980" y="440" as="targetPoint" />
            <Array as="points">
              <mxPoint x="1050" y="410" />
              <mxPoint x="970" y="410" />
            </Array>
          </mxGeometry>
        </mxCell>
        <mxCell id="N8t71QXlJl4tXd5FIuUb-48" value="" style="shape=cube;whiteSpace=wrap;html=1;boundedLbl=1;backgroundOutline=1;darkOpacity=0.05;darkOpacity2=0.1;" vertex="1" parent="1">
          <mxGeometry x="450" y="310" width="120" height="60" as="geometry" />
        </mxCell>
        <mxCell id="N8t71QXlJl4tXd5FIuUb-49" value="EPOSS Service" style="text;html=1;align=center;verticalAlign=middle;resizable=0;points=[];autosize=1;" vertex="1" parent="1">
          <mxGeometry x="470" y="340" width="100" height="20" as="geometry" />
        </mxCell>
        <mxCell id="N8t71QXlJl4tXd5FIuUb-50" value="" style="endArrow=classic;html=1;exitX=-0.022;exitY=0.605;exitDx=0;exitDy=0;exitPerimeter=0;" edge="1" parent="1" source="N8t71QXlJl4tXd5FIuUb-14">
          <mxGeometry width="50" height="50" relative="1" as="geometry">
            <mxPoint x="820" y="340" as="sourcePoint" />
            <mxPoint x="570" y="350" as="targetPoint" />
          </mxGeometry>
        </mxCell>
        <mxCell id="N8t71QXlJl4tXd5FIuUb-52" value="" style="shape=cube;whiteSpace=wrap;html=1;boundedLbl=1;backgroundOutline=1;darkOpacity=0.05;darkOpacity2=0.1;" vertex="1" parent="1">
          <mxGeometry x="1280" y="555" width="120" height="60" as="geometry" />
        </mxCell>
        <mxCell id="N8t71QXlJl4tXd5FIuUb-53" value="EPOSS Service" style="text;html=1;align=center;verticalAlign=middle;resizable=0;points=[];autosize=1;" vertex="1" parent="1">
          <mxGeometry x="1300" y="585" width="100" height="20" as="geometry" />
        </mxCell>
        <mxCell id="N8t71QXlJl4tXd5FIuUb-54" value="" style="endArrow=classic;html=1;entryX=0;entryY=0;entryDx=0;entryDy=20;entryPerimeter=0;" edge="1" parent="1" target="N8t71QXlJl4tXd5FIuUb-52">
          <mxGeometry width="50" height="50" relative="1" as="geometry">
            <mxPoint x="1130" y="574.29" as="sourcePoint" />
            <mxPoint x="1270" y="574.29" as="targetPoint" />
          </mxGeometry>
        </mxCell>
        <mxCell id="N8t71QXlJl4tXd5FIuUb-55" value="" style="endArrow=classic;html=1;exitX=0;exitY=0;exitDx=120.00000000000001;exitDy=40;exitPerimeter=0;entryX=0;entryY=0.5;entryDx=0;entryDy=0;entryPerimeter=0;" edge="1" parent="1" source="N8t71QXlJl4tXd5FIuUb-52" target="N8t71QXlJl4tXd5FIuUb-56">
          <mxGeometry width="50" height="50" relative="1" as="geometry">
            <mxPoint x="1670" y="460" as="sourcePoint" />
            <mxPoint x="1590" y="595" as="targetPoint" />
          </mxGeometry>
        </mxCell>
        <mxCell id="N8t71QXlJl4tXd5FIuUb-56" value="EPOSS DB" style="shape=cylinder3;whiteSpace=wrap;html=1;boundedLbl=1;backgroundOutline=1;size=15;" vertex="1" parent="1">
          <mxGeometry x="1610" y="555" width="70" height="80" as="geometry" />
        </mxCell>
        <mxCell id="N8t71QXlJl4tXd5FIuUb-57" value="cashMemoDetails items by CMId - grnItems By CMId" style="text;html=1;align=center;verticalAlign=middle;resizable=0;points=[];autosize=1;" vertex="1" parent="1">
          <mxGeometry x="1190" y="635" width="300" height="20" as="geometry" />
        </mxCell>
        <mxCell id="N8t71QXlJl4tXd5FIuUb-13" value="EPOSS DB" style="shape=cylinder3;whiteSpace=wrap;html=1;boundedLbl=1;backgroundOutline=1;size=15;" vertex="1" parent="1">
          <mxGeometry x="225" y="300" width="70" height="80" as="geometry" />
        </mxCell>
        <mxCell id="N8t71QXlJl4tXd5FIuUb-66" value="" style="endArrow=classic;html=1;" edge="1" parent="1" source="N8t71QXlJl4tXd5FIuUb-48" target="N8t71QXlJl4tXd5FIuUb-13">
          <mxGeometry width="50" height="50" relative="1" as="geometry">
            <mxPoint x="390" y="340" as="sourcePoint" />
            <mxPoint x="140" y="340" as="targetPoint" />
          </mxGeometry>
        </mxCell>
        <mxCell id="N8t71QXlJl4tXd5FIuUb-68" value="" style="endArrow=classic;html=1;exitX=0;exitY=0.75;exitDx=0;exitDy=0;entryX=0.5;entryY=1;entryDx=0;entryDy=0;entryPerimeter=0;" edge="1" parent="1" source="N8t71QXlJl4tXd5FIuUb-17" target="N8t71QXlJl4tXd5FIuUb-13">
          <mxGeometry width="50" height="50" relative="1" as="geometry">
            <mxPoint x="600" y="400" as="sourcePoint" />
            <mxPoint x="650" y="350" as="targetPoint" />
            <Array as="points">
              <mxPoint x="260" y="590" />
            </Array>
          </mxGeometry>
        </mxCell>
        <mxCell id="N8t71QXlJl4tXd5FIuUb-71" value="" style="endArrow=classic;html=1;exitX=1;exitY=0.5;exitDx=0;exitDy=0;entryX=0.5;entryY=0;entryDx=0;entryDy=0;" edge="1" parent="1" source="N8t71QXlJl4tXd5FIuUb-4" target="N8t71QXlJl4tXd5FIuUb-42">
          <mxGeometry width="50" height="50" relative="1" as="geometry">
            <mxPoint x="960" y="82.5" as="sourcePoint" />
            <mxPoint x="1050" y="160" as="targetPoint" />
            <Array as="points">
              <mxPoint x="1050" y="83" />
            </Array>
          </mxGeometry>
        </mxCell>
        <mxCell id="N8t71QXlJl4tXd5FIuUb-72" value="YES" style="text;html=1;align=center;verticalAlign=middle;resizable=0;points=[];autosize=1;" vertex="1" parent="1">
          <mxGeometry x="787" y="240" width="40" height="20" as="geometry" />
        </mxCell>
        <mxCell id="N8t71QXlJl4tXd5FIuUb-73" value="NO" style="text;html=1;align=center;verticalAlign=middle;resizable=0;points=[];autosize=1;" vertex="1" parent="1">
          <mxGeometry x="760" y="170" width="30" height="20" as="geometry" />
        </mxCell>
        <mxCell id="N8t71QXlJl4tXd5FIuUb-75" value="throw error" style="rounded=0;whiteSpace=wrap;html=1;fillColor=#f8cecc;strokeColor=#b85450;" vertex="1" parent="1">
          <mxGeometry x="530" y="175" width="120" height="50" as="geometry" />
        </mxCell>
        <mxCell id="N8t71QXlJl4tXd5FIuUb-77" value="is interbrand,&lt;br&gt;inter ownertyoe&lt;br&gt;allowed" style="rhombus;whiteSpace=wrap;html=1;" vertex="1" parent="1">
          <mxGeometry x="880" y="415" width="120" height="105" as="geometry" />
        </mxCell>
        <mxCell id="N8t71QXlJl4tXd5FIuUb-80" value="NO" style="text;html=1;align=center;verticalAlign=middle;resizable=0;points=[];autosize=1;" vertex="1" parent="1">
          <mxGeometry x="975" y="430" width="30" height="20" as="geometry" />
        </mxCell>
        <mxCell id="N8t71QXlJl4tXd5FIuUb-81" value="throw error" style="rounded=0;whiteSpace=wrap;html=1;fillColor=#f8cecc;strokeColor=#b85450;" vertex="1" parent="1">
          <mxGeometry x="1110" y="442.5" width="120" height="50" as="geometry" />
        </mxCell>
        <mxCell id="N8t71QXlJl4tXd5FIuUb-82" value="" style="endArrow=classic;html=1;entryX=0;entryY=0.5;entryDx=0;entryDy=0;exitX=1;exitY=0.5;exitDx=0;exitDy=0;" edge="1" parent="1" source="N8t71QXlJl4tXd5FIuUb-77" target="N8t71QXlJl4tXd5FIuUb-81">
          <mxGeometry width="50" height="50" relative="1" as="geometry">
            <mxPoint x="1020" y="500" as="sourcePoint" />
            <mxPoint x="1080" y="480" as="targetPoint" />
          </mxGeometry>
        </mxCell>
        <mxCell id="N8t71QXlJl4tXd5FIuUb-85" value="" style="endArrow=classic;html=1;exitX=0;exitY=1;exitDx=0;exitDy=0;entryX=0.413;entryY=0.017;entryDx=0;entryDy=0;entryPerimeter=0;" edge="1" parent="1" source="N8t71QXlJl4tXd5FIuUb-77" target="N8t71QXlJl4tXd5FIuUb-17">
          <mxGeometry width="50" height="50" relative="1" as="geometry">
            <mxPoint x="907" y="483.75" as="sourcePoint" />
            <mxPoint x="810" y="530" as="targetPoint" />
            <Array as="points">
              <mxPoint x="907" y="513.75" />
              <mxPoint x="827" y="513.75" />
            </Array>
          </mxGeometry>
        </mxCell>
        <mxCell id="N8t71QXlJl4tXd5FIuUb-86" value="" style="endArrow=classic;html=1;exitX=1;exitY=1;exitDx=0;exitDy=0;entryX=0.5;entryY=0;entryDx=0;entryDy=0;" edge="1" parent="1" source="N8t71QXlJl4tXd5FIuUb-77" target="N8t71QXlJl4tXd5FIuUb-43">
          <mxGeometry width="50" height="50" relative="1" as="geometry">
            <mxPoint x="979.4099999999999" y="483.75" as="sourcePoint" />
            <mxPoint x="1080" y="530" as="targetPoint" />
            <Array as="points">
              <mxPoint x="970" y="514" />
              <mxPoint x="1050" y="513.75" />
            </Array>
          </mxGeometry>
        </mxCell>
        <mxCell id="N8t71QXlJl4tXd5FIuUb-87" value="YES" style="text;html=1;align=center;verticalAlign=middle;resizable=0;points=[];autosize=1;" vertex="1" parent="1">
          <mxGeometry x="920" y="520" width="40" height="20" as="geometry" />
        </mxCell>
        <mxCell id="N8t71QXlJl4tXd5FIuUb-90" value="is interbtq&lt;br&gt;allowed" style="rhombus;whiteSpace=wrap;html=1;" vertex="1" parent="1">
          <mxGeometry x="800" y="160" width="80" height="80" as="geometry" />
        </mxCell>
        <mxCell id="N8t71QXlJl4tXd5FIuUb-91" value="" style="endArrow=classic;html=1;exitX=0.5;exitY=1;exitDx=0;exitDy=0;entryX=0.5;entryY=0;entryDx=0;entryDy=0;" edge="1" parent="1">
          <mxGeometry width="50" height="50" relative="1" as="geometry">
            <mxPoint x="839.29" y="240" as="sourcePoint" />
            <mxPoint x="839.29" y="300" as="targetPoint" />
            <Array as="points">
              <mxPoint x="839.29" y="270" />
            </Array>
          </mxGeometry>
        </mxCell>
        <mxCell id="N8t71QXlJl4tXd5FIuUb-92" value="" style="endArrow=classic;html=1;exitX=0;exitY=0.5;exitDx=0;exitDy=0;entryX=0;entryY=0.5;entryDx=0;entryDy=0;" edge="1" parent="1" source="N8t71QXlJl4tXd5FIuUb-90">
          <mxGeometry width="50" height="50" relative="1" as="geometry">
            <mxPoint x="760" y="200" as="sourcePoint" />
            <mxPoint x="650" y="200" as="targetPoint" />
          </mxGeometry>
        </mxCell>
        <mxCell id="N8t71QXlJl4tXd5FIuUb-93" value="call search customer&lt;br&gt;(mobileNo, else ULPId)" style="rounded=0;whiteSpace=wrap;html=1;" vertex="1" parent="1">
          <mxGeometry x="760" y="750" width="160" height="60" as="geometry" />
        </mxCell>
        <mxCell id="N8t71QXlJl4tXd5FIuUb-94" value="" style="endArrow=classic;html=1;exitX=0.5;exitY=1;exitDx=0;exitDy=0;entryX=0.5;entryY=0;entryDx=0;entryDy=0;" edge="1" parent="1" source="N8t71QXlJl4tXd5FIuUb-22" target="N8t71QXlJl4tXd5FIuUb-93">
          <mxGeometry width="50" height="50" relative="1" as="geometry">
            <mxPoint x="900" y="720" as="sourcePoint" />
            <mxPoint x="950" y="670" as="targetPoint" />
          </mxGeometry>
        </mxCell>
        <mxCell id="N8t71QXlJl4tXd5FIuUb-95" value="" style="endArrow=classic;html=1;exitX=0.5;exitY=1;exitDx=0;exitDy=0;entryX=0.5;entryY=0;entryDx=0;entryDy=0;" edge="1" parent="1" source="N8t71QXlJl4tXd5FIuUb-93" target="N8t71QXlJl4tXd5FIuUb-29">
          <mxGeometry width="50" height="50" relative="1" as="geometry">
            <mxPoint x="900" y="650" as="sourcePoint" />
            <mxPoint x="950" y="600" as="targetPoint" />
          </mxGeometry>
        </mxCell>
      </root>
    </mxGraphModel>
  </diagram>
</mxfile>
